<svg width="139" height="139" viewBox="0 0 139 139" fill="none" xmlns="http://www.w3.org/2000/svg">
<rect width="138.5" height="138.5" rx="17.3125" fill="#2D2D2D"/>
<path d="M23.5106 24.0442H21.8758C21.813 23.6949 21.696 23.3875 21.5248 23.122C21.3536 22.8566 21.1441 22.6313 20.8961 22.4461C20.6481 22.261 20.3704 22.1213 20.063 22.027C19.7591 21.9327 19.436 21.8855 19.0937 21.8855C18.4754 21.8855 17.9218 22.041 17.4328 22.3518C16.9472 22.6627 16.563 23.1185 16.2801 23.7193C16.0006 24.3201 15.8609 25.0537 15.8609 25.9199C15.8609 26.7932 16.0006 27.5302 16.2801 28.131C16.563 28.7318 16.949 29.1859 17.438 29.4933C17.927 29.8006 18.4772 29.9543 19.0884 29.9543C19.4273 29.9543 19.7486 29.9089 20.0525 29.8181C20.3599 29.7238 20.6376 29.5858 20.8856 29.4042C21.1336 29.2225 21.3432 29.0007 21.5143 28.7388C21.689 28.4733 21.8095 28.1694 21.8758 27.8271L23.5106 27.8323C23.4232 28.3598 23.2538 28.8453 23.0023 29.2889C22.7543 29.729 22.4347 30.1098 22.0435 30.4311C21.6558 30.749 21.2122 30.9952 20.7127 31.1699C20.2132 31.3445 19.6683 31.4319 19.078 31.4319C18.1488 31.4319 17.321 31.2118 16.5944 30.7717C15.8679 30.3281 15.295 29.6941 14.8759 28.8698C14.4602 28.0454 14.2524 27.0621 14.2524 25.9199C14.2524 24.7742 14.462 23.7909 14.8811 22.9701C15.3003 22.1457 15.8731 21.5135 16.5997 21.0734C17.3262 20.6298 18.1523 20.408 19.078 20.408C19.6473 20.408 20.1782 20.4901 20.6708 20.6542C21.1668 20.8149 21.6121 21.0524 22.0068 21.3668C22.4015 21.6777 22.7281 22.0584 22.9866 22.509C23.2451 22.9561 23.4197 23.4678 23.5106 24.0442ZM39.1952 25.9199C39.1952 27.0656 38.9856 28.0506 38.5665 28.875C38.1473 29.6958 37.5727 30.3281 36.8427 30.7717C36.1162 31.2118 35.2901 31.4319 34.3644 31.4319C33.4353 31.4319 32.6057 31.2118 31.8757 30.7717C31.1491 30.3281 30.5763 29.6941 30.1571 28.8698C29.738 28.0454 29.5284 27.0621 29.5284 25.9199C29.5284 24.7742 29.738 23.7909 30.1571 22.9701C30.5763 22.1457 31.1491 21.5135 31.8757 21.0734C32.6057 20.6298 33.4353 20.408 34.3644 20.408C35.2901 20.408 36.1162 20.6298 36.8427 21.0734C37.5727 21.5135 38.1473 22.1457 38.5665 22.9701C38.9856 23.7909 39.1952 24.7742 39.1952 25.9199ZM37.5919 25.9199C37.5919 25.0467 37.4505 24.3114 37.1675 23.7141C36.8881 23.1133 36.5039 22.6592 36.0149 22.3518C35.5293 22.041 34.9792 21.8855 34.3644 21.8855C33.7462 21.8855 33.1943 22.041 32.7087 22.3518C32.2232 22.6592 31.839 23.1133 31.5561 23.7141C31.2766 24.3114 31.1369 25.0467 31.1369 25.9199C31.1369 26.7932 31.2766 27.5302 31.5561 28.131C31.839 28.7283 32.2232 29.1824 32.7087 29.4933C33.1943 29.8006 33.7462 29.9543 34.3644 29.9543C34.9792 29.9543 35.5293 29.8006 36.0149 29.4933C36.5039 29.1824 36.8881 28.7283 37.1675 28.131C37.4505 27.5302 37.5919 26.7932 37.5919 25.9199ZM54.3009 20.5547V31.2852H52.8129L47.3586 23.4154H47.2591V31.2852H45.6401V20.5547H47.1385L52.5981 28.4349H52.6976V20.5547H54.3009ZM60.5597 21.9484V20.5547H68.8643V21.9484H65.5163V31.2852H63.9025V21.9484H60.5597ZM75.1258 31.2852V20.5547H78.9506C79.7819 20.5547 80.4718 20.6979 81.0202 20.9843C81.5721 21.2708 81.9843 21.6672 82.2567 22.1737C82.5292 22.6767 82.6654 23.2583 82.6654 23.9184C82.6654 24.5751 82.5274 25.1532 82.2515 25.6527C81.979 26.1487 81.5669 26.5347 81.015 26.8106C80.4666 27.0866 79.7767 27.2246 78.9454 27.2246H76.0479V25.8309H78.7987C79.3226 25.8309 79.7488 25.7558 80.0771 25.6056C80.4089 25.4554 80.6517 25.237 80.8054 24.9506C80.9591 24.6642 81.0359 24.3201 81.0359 23.9184C81.0359 23.5133 80.9573 23.1622 80.8001 22.8653C80.6465 22.5684 80.4037 22.3414 80.0719 22.1842C79.7435 22.0235 79.3121 21.9432 78.7777 21.9432H76.7448V31.2852H75.1258ZM80.4229 26.4439L83.0741 31.2852H81.2298L78.631 26.4439H80.4229ZM89.9682 31.2852H88.2496L92.1111 20.5547H93.9816L97.8431 31.2852H96.1246L93.0909 22.5038H93.0071L89.9682 31.2852ZM90.2564 27.0831H95.8312V28.4454H90.2564V27.0831ZM109.585 23.3735C109.529 22.8775 109.299 22.4933 108.893 22.2208C108.488 21.9449 107.978 21.8069 107.364 21.8069C106.923 21.8069 106.543 21.8768 106.221 22.0165C105.9 22.1527 105.65 22.3414 105.472 22.5824C105.297 22.8199 105.21 23.0906 105.21 23.3945C105.21 23.6495 105.27 23.8695 105.388 24.0547C105.511 24.2398 105.669 24.3952 105.865 24.521C106.064 24.6432 106.277 24.7463 106.504 24.8301C106.731 24.9104 106.95 24.9768 107.159 25.0292L108.207 25.3017C108.549 25.3855 108.9 25.499 109.26 25.6422C109.62 25.7854 109.954 25.9741 110.261 26.2081C110.568 26.4421 110.816 26.732 111.005 27.0778C111.197 27.4237 111.293 27.8376 111.293 28.3196C111.293 28.9274 111.136 29.4671 110.822 29.9386C110.511 30.4102 110.058 30.7822 109.465 31.0546C108.874 31.3271 108.16 31.4633 107.322 31.4633C106.518 31.4633 105.823 31.3358 105.236 31.0808C104.649 30.8258 104.19 30.4643 103.858 29.9962C103.527 29.5247 103.343 28.9658 103.308 28.3196H104.932C104.964 28.7073 105.09 29.0304 105.31 29.2889C105.533 29.5439 105.818 29.7343 106.164 29.86C106.513 29.9823 106.895 30.0434 107.311 30.0434C107.769 30.0434 108.176 29.9718 108.532 29.8286C108.892 29.6819 109.175 29.4793 109.381 29.2208C109.587 28.9588 109.69 28.6532 109.69 28.3039C109.69 27.986 109.599 27.7258 109.417 27.5232C109.239 27.3206 108.997 27.1529 108.689 27.0202C108.385 26.8875 108.041 26.7705 107.657 26.6692L106.389 26.3234C105.53 26.0893 104.849 25.7453 104.346 25.2912C103.846 24.8371 103.596 24.2363 103.596 23.4888C103.596 22.8705 103.764 22.3309 104.099 21.8698C104.435 21.4087 104.889 21.0507 105.462 20.7957C106.034 20.5372 106.681 20.408 107.4 20.408C108.127 20.408 108.768 20.5355 109.323 20.7905C109.882 21.0455 110.322 21.3965 110.643 21.8436C110.965 22.2872 111.132 22.7972 111.146 23.3735H109.585ZM117.125 21.9484V20.5547H125.43V21.9484H122.082V31.2852H120.468V21.9484H117.125Z" fill="white"/>
<path d="M55.2953 63.293H44.9682C44.7796 61.9569 44.3945 60.7702 43.8129 59.7328C43.2313 58.6796 42.4847 57.7837 41.573 57.0449C40.6614 56.3061 39.6082 55.7403 38.4136 55.3473C37.2347 54.9544 35.9537 54.7579 34.5705 54.7579C32.0712 54.7579 29.8942 55.3788 28.0395 56.6205C26.1847 57.8465 24.7464 59.6385 23.7247 61.9962C22.703 64.3383 22.1922 67.1833 22.1922 70.5313C22.1922 73.9737 22.703 76.8659 23.7247 79.2079C24.7622 81.55 26.2083 83.3183 28.063 84.5129C29.9178 85.7075 32.0634 86.3048 34.4997 86.3048C35.8672 86.3048 37.1326 86.1241 38.2957 85.7625C39.4746 85.401 40.5199 84.8744 41.4316 84.1828C42.3432 83.4755 43.0977 82.6188 43.695 81.6129C44.3081 80.6069 44.7325 79.4594 44.9682 78.1705L55.2953 78.2177C55.028 80.434 54.36 82.5717 53.2912 84.6308C52.238 86.6742 50.8155 88.5054 49.0236 90.1244C47.2474 91.7277 45.1254 93.0009 42.6576 93.944C40.2055 94.8714 37.4312 95.3351 34.3347 95.3351C30.0278 95.3351 26.1768 94.3605 22.7816 92.4114C19.4022 90.4623 16.73 87.6409 14.7652 83.947C12.8161 80.2532 11.8416 75.7813 11.8416 70.5313C11.8416 65.2657 12.8318 60.7859 14.8124 57.0921C16.7929 53.3982 19.4808 50.5846 22.8759 48.6513C26.2711 46.7022 30.0907 45.7276 34.3347 45.7276C37.1326 45.7276 39.7261 46.1206 42.1153 46.9065C44.5203 47.6924 46.6501 48.8399 48.5049 50.3488C50.3597 51.8421 51.8686 53.6733 53.0318 55.8424C54.2107 58.0116 54.9652 60.4951 55.2953 63.293Z" fill="white"/>
<rect x="65.7378" y="62.232" width="5.5329" height="5.5329" fill="white"/>
<rect x="65.7378" y="73.2978" width="5.5329" height="5.5329" fill="#A6A6A6"/>
<path d="M125.167 63.293H114.84C114.651 61.9569 114.266 60.7702 113.684 59.7328C113.103 58.6796 112.356 57.7837 111.445 57.0449C110.533 56.3061 109.48 55.7403 108.285 55.3473C107.106 54.9544 105.825 54.7579 104.442 54.7579C101.943 54.7579 99.7657 55.3788 97.9109 56.6205C96.0561 57.8465 94.6179 59.6385 93.5962 61.9962C92.5745 64.3383 92.0636 67.1833 92.0636 70.5313C92.0636 73.9737 92.5745 76.8659 93.5962 79.2079C94.6336 81.55 96.0797 83.3183 97.9345 84.5129C99.7893 85.7075 101.935 86.3048 104.371 86.3048C105.739 86.3048 107.004 86.1241 108.167 85.7625C109.346 85.401 110.391 84.8744 111.303 84.1828C112.215 83.4755 112.969 82.6188 113.566 81.6129C114.18 80.6069 114.604 79.4594 114.84 78.1705L125.167 78.2177C124.9 80.434 124.231 82.5717 123.163 84.6308C122.109 86.6742 120.687 88.5054 118.895 90.1244C117.119 91.7277 114.997 93.0009 112.529 93.944C110.077 94.8714 107.303 95.3351 104.206 95.3351C99.8993 95.3351 96.0483 94.3605 92.6531 92.4114C89.2736 90.4623 86.6015 87.6409 84.6367 83.947C82.6876 80.2532 81.713 75.7813 81.713 70.5313C81.713 65.2657 82.7033 60.7859 84.6838 57.0921C86.6644 53.3982 89.3522 50.5846 92.7474 48.6513C96.1426 46.7022 99.9622 45.7276 104.206 45.7276C107.004 45.7276 109.598 46.1206 111.987 46.9065C114.392 47.6924 116.522 48.8399 118.376 50.3488C120.231 51.8421 121.74 53.6733 122.903 55.8424C124.082 58.0116 124.837 60.4951 125.167 63.293Z" fill="#A6A6A6"/>
<path d="M23.6532 112.982H22.119C22.06 112.654 21.9502 112.366 21.7896 112.117C21.629 111.868 21.4323 111.656 21.1996 111.482C20.9668 111.309 20.7062 111.178 20.4177 111.089C20.1325 111.001 19.8293 110.956 19.5081 110.956C18.9279 110.956 18.4083 111.102 17.9494 111.394C17.4937 111.686 17.1331 112.113 16.8676 112.677C16.6054 113.241 16.4743 113.929 16.4743 114.742C16.4743 115.562 16.6054 116.254 16.8676 116.817C17.1331 117.381 17.4954 117.807 17.9543 118.096C18.4132 118.384 18.9295 118.529 19.5032 118.529C19.8211 118.529 20.1227 118.486 20.4079 118.401C20.6964 118.312 20.957 118.183 21.1897 118.012C21.4225 117.842 21.6191 117.634 21.7798 117.388C21.9437 117.139 22.0568 116.854 22.119 116.532L23.6532 116.537C23.5712 117.032 23.4122 117.488 23.1762 117.904C22.9435 118.317 22.6435 118.674 22.2764 118.976C21.9125 119.274 21.4962 119.505 21.0275 119.669C20.5587 119.833 20.0473 119.915 19.4933 119.915C18.6214 119.915 17.8445 119.709 17.1626 119.296C16.4808 118.879 15.9432 118.284 15.5498 117.511C15.1598 116.737 14.9647 115.814 14.9647 114.742C14.9647 113.667 15.1614 112.744 15.5548 111.974C15.9481 111.201 16.4857 110.607 17.1676 110.194C17.8494 109.778 18.6247 109.57 19.4933 109.57C20.0277 109.57 20.5259 109.647 20.9881 109.801C21.4536 109.952 21.8715 110.175 22.242 110.47C22.6124 110.761 22.9189 111.119 23.1615 111.541C23.404 111.961 23.5679 112.441 23.6532 112.982ZM33.0868 119.778V109.707H34.6062V114.084H39.6265V109.707H41.1508V119.778H39.6265V115.387H34.6062V119.778H33.0868ZM50.979 119.778V109.707H57.2925V111.015H52.4984V114.084H56.963V115.387H52.4984V118.47H57.3515V119.778H50.979ZM75.3015 112.982H73.7673C73.7083 112.654 73.5985 112.366 73.4379 112.117C73.2773 111.868 73.0806 111.656 72.8478 111.482C72.6151 111.309 72.3545 111.178 72.066 111.089C71.7808 111.001 71.4776 110.956 71.1564 110.956C70.5762 110.956 70.0566 111.102 69.5977 111.394C69.142 111.686 68.7814 112.113 68.5159 112.677C68.2537 113.241 68.1226 113.929 68.1226 114.742C68.1226 115.562 68.2537 116.254 68.5159 116.817C68.7814 117.381 69.1437 117.807 69.6026 118.096C70.0615 118.384 70.5778 118.529 71.1515 118.529C71.4694 118.529 71.771 118.486 72.0562 118.401C72.3447 118.312 72.6053 118.183 72.838 118.012C73.0708 117.842 73.2674 117.634 73.4281 117.388C73.592 117.139 73.7051 116.854 73.7673 116.532L75.3015 116.537C75.2195 117.032 75.0605 117.488 74.8245 117.904C74.5918 118.317 74.2918 118.674 73.9247 118.976C73.5608 119.274 73.1445 119.505 72.6757 119.669C72.207 119.833 71.6956 119.915 71.1416 119.915C70.2697 119.915 69.4928 119.709 68.8109 119.296C68.1291 118.879 67.5915 118.284 67.1981 117.511C66.8081 116.737 66.613 115.814 66.613 114.742C66.613 113.667 66.8097 112.744 67.2031 111.974C67.5964 111.201 68.134 110.607 68.8159 110.194C69.4977 109.778 70.2729 109.57 71.1416 109.57C71.6759 109.57 72.1742 109.647 72.6364 109.801C73.1019 109.952 73.5198 110.175 73.8903 110.47C74.2607 110.761 74.5672 111.119 74.8098 111.541C75.0523 111.961 75.2162 112.441 75.3015 112.982ZM84.7351 119.778V109.707H86.2545V114.516H86.3774L90.6011 109.707H92.5139L88.4524 114.241L92.5286 119.778H90.6995L87.4444 115.278L86.2545 116.645V119.778H84.7351ZM101.546 119.778V109.707H107.859V111.015H103.065V114.084H107.53V115.387H103.065V118.47H107.918V119.778H101.546ZM117.504 119.778V109.707H121.094C121.874 109.707 122.521 109.842 123.036 110.111C123.554 110.379 123.941 110.751 124.196 111.227C124.452 111.699 124.58 112.245 124.58 112.864C124.58 113.48 124.45 114.023 124.191 114.492C123.936 114.957 123.549 115.319 123.031 115.578C122.516 115.837 121.869 115.967 121.089 115.967H118.369V114.659H120.951C121.443 114.659 121.843 114.588 122.151 114.447C122.462 114.306 122.69 114.102 122.834 113.833C122.978 113.564 123.051 113.241 123.051 112.864C123.051 112.484 122.977 112.154 122.829 111.876C122.685 111.597 122.457 111.384 122.146 111.237C121.838 111.086 121.433 111.01 120.931 111.01H119.023V119.778H117.504ZM122.475 115.234L124.963 119.778H123.232L120.794 115.234H122.475Z" fill="white"/>
</svg>
