<svg width="210" height="111" viewBox="0 0 210 111" fill="none" xmlns="http://www.w3.org/2000/svg">
<path d="M79.0879 31.9699H60.2922C59.9489 29.5382 59.248 27.3782 58.1895 25.4901C57.131 23.5733 55.7721 21.9426 54.1128 20.5981C52.4535 19.2535 50.5368 18.2236 48.3625 17.5083C46.2169 16.7931 43.8853 16.4355 41.3678 16.4355C36.819 16.4355 32.8568 17.5656 29.481 19.8256C26.1052 22.0571 23.4875 25.3184 21.628 29.6097C19.7684 33.8724 18.8386 39.0505 18.8386 45.1441C18.8386 51.4093 19.7684 56.6733 21.628 60.9359C23.5161 65.1986 26.1481 68.417 29.5239 70.5912C32.8997 72.7655 36.8047 73.8526 41.239 73.8526C43.728 73.8526 46.0309 73.5236 48.1479 72.8656C50.2936 72.2076 52.196 71.2492 53.8553 69.9905C55.5146 68.7031 56.8878 67.1439 57.9749 65.313C59.0907 63.4821 59.8631 61.3936 60.2922 59.0478L79.0879 59.1336C78.6016 63.1674 77.3857 67.0581 75.4404 70.8058C73.5236 74.5249 70.9345 77.8578 67.6732 80.8044C64.4404 83.7225 60.5783 86.0398 56.0868 87.7563C51.6239 89.4442 46.5745 90.2881 40.9386 90.2881C33.0999 90.2881 26.0909 88.5144 19.9115 84.967C13.7606 81.4195 8.89721 76.2843 5.32116 69.5613C1.77372 62.8384 0 54.6993 0 45.1441C0 35.5603 1.80233 27.4069 5.40699 20.6839C9.01165 13.9609 13.9037 8.84 20.0831 5.32117C26.2625 1.77372 33.2144 0 40.9386 0C46.0309 0 50.7513 0.71521 55.0998 2.14563C59.4769 3.57605 63.3533 5.66446 66.7291 8.41087C70.1049 11.1287 72.8513 14.4615 74.9683 18.4095C77.114 22.3575 78.4872 26.8776 79.0879 31.9699Z" fill="black"/>
<path d="M210 31.9699H191.204C190.861 29.5382 190.16 27.3782 189.102 25.4901C188.043 23.5733 186.684 21.9426 185.025 20.5981C183.366 19.2535 181.449 18.2236 179.275 17.5083C177.129 16.7931 174.797 16.4355 172.28 16.4355C167.731 16.4355 163.769 17.5656 160.393 19.8256C157.017 22.0571 154.4 25.3184 152.54 29.6097C150.68 33.8724 149.751 39.0505 149.751 45.1441C149.751 51.4093 150.68 56.6733 152.54 60.9359C154.428 65.1986 157.06 68.417 160.436 70.5912C163.812 72.7655 167.717 73.8526 172.151 73.8526C174.64 73.8526 176.943 73.5236 179.06 72.8656C181.206 72.2076 183.108 71.2492 184.767 69.9905C186.427 68.7031 187.8 67.1439 188.887 65.313C190.003 63.4821 190.775 61.3936 191.204 59.0478L210 59.1336C209.514 63.1674 208.298 67.0581 206.352 70.8058C204.436 74.5249 201.847 77.8578 198.585 80.8044C195.352 83.7225 191.49 86.0398 186.999 87.7563C182.536 89.4442 177.487 90.2881 171.851 90.2881C164.012 90.2881 157.003 88.5144 150.824 84.967C144.673 81.4195 139.809 76.2843 136.233 69.5613C132.686 62.8384 130.912 54.6993 130.912 45.1441C130.912 35.5603 132.714 27.4069 136.319 20.6839C139.924 13.9609 144.816 8.84 150.995 5.32117C157.175 1.77372 164.126 0 171.851 0C176.943 0 181.663 0.71521 186.012 2.14563C190.389 3.57605 194.265 5.66446 197.641 8.41087C201.017 11.1287 203.763 14.4615 205.88 18.4095C208.026 22.3575 209.399 26.8776 210 31.9699Z" fill="#8B8B8B"/>
<rect x="100.702" y="30.2105" width="10.0702" height="10.0702" fill="black"/>
<rect x="100.702" y="50.3508" width="10.0702" height="10.0702" fill="#8B8B8B"/>
<path d="M7.96431 105.759H6.84859C6.80567 105.521 6.72581 105.311 6.60899 105.13C6.49217 104.949 6.34913 104.795 6.17986 104.669C6.0106 104.542 5.82107 104.447 5.61127 104.383C5.40386 104.318 5.18334 104.286 4.9497 104.286C4.52773 104.286 4.14986 104.392 3.81609 104.604C3.48471 104.817 3.22247 105.128 3.02936 105.538C2.83864 105.948 2.74328 106.448 2.74328 107.04C2.74328 107.636 2.83864 108.139 3.02936 108.549C3.22247 108.959 3.48591 109.269 3.81967 109.479C4.15343 109.688 4.52892 109.793 4.94613 109.793C5.17738 109.793 5.39671 109.762 5.60412 109.7C5.81391 109.636 6.00345 109.542 6.17271 109.418C6.34198 109.294 6.48502 109.142 6.60184 108.964C6.72104 108.782 6.80329 108.575 6.84859 108.341L7.96431 108.345C7.90471 108.705 7.78909 109.036 7.61744 109.339C7.44817 109.64 7.23003 109.899 6.96302 110.119C6.69839 110.336 6.39562 110.504 6.0547 110.623C5.71378 110.742 5.34188 110.802 4.93897 110.802C4.30482 110.802 3.73981 110.652 3.24393 110.351C2.74805 110.048 2.35707 109.616 2.07098 109.053C1.78728 108.49 1.64543 107.819 1.64543 107.04C1.64543 106.258 1.78847 105.587 2.07456 105.026C2.36064 104.464 2.75162 104.032 3.2475 103.732C3.74338 103.429 4.30721 103.278 4.93897 103.278C5.32757 103.278 5.68994 103.334 6.02609 103.446C6.36463 103.555 6.66859 103.718 6.93799 103.932C7.20738 104.144 7.43029 104.404 7.60671 104.712C7.78313 105.017 7.90233 105.366 7.96431 105.759ZM18.6694 107.04C18.6694 107.822 18.5264 108.494 18.2403 109.057C17.9542 109.617 17.562 110.048 17.0638 110.351C16.5679 110.652 16.004 110.802 15.3723 110.802C14.7381 110.802 14.1719 110.652 13.6737 110.351C13.1778 110.048 12.7868 109.616 12.5007 109.053C12.2146 108.49 12.0716 107.819 12.0716 107.04C12.0716 106.258 12.2146 105.587 12.5007 105.026C12.7868 104.464 13.1778 104.032 13.6737 103.732C14.1719 103.429 14.7381 103.278 15.3723 103.278C16.004 103.278 16.5679 103.429 17.0638 103.732C17.562 104.032 17.9542 104.464 18.2403 105.026C18.5264 105.587 18.6694 106.258 18.6694 107.04ZM17.5751 107.04C17.5751 106.444 17.4786 105.942 17.2855 105.534C17.0947 105.124 16.8325 104.814 16.4987 104.604C16.1674 104.392 15.7919 104.286 15.3723 104.286C14.9503 104.286 14.5736 104.392 14.2422 104.604C13.9109 104.814 13.6486 105.124 13.4555 105.534C13.2648 105.942 13.1694 106.444 13.1694 107.04C13.1694 107.636 13.2648 108.139 13.4555 108.549C13.6486 108.956 13.9109 109.266 14.2422 109.479C14.5736 109.688 14.9503 109.793 15.3723 109.793C15.7919 109.793 16.1674 109.688 16.4987 109.479C16.8325 109.266 17.0947 108.956 17.2855 108.549C17.4786 108.139 17.5751 107.636 17.5751 107.04ZM28.9793 103.378V110.702H27.9637L24.2411 105.33H24.1731V110.702H23.0681V103.378H24.0909L27.8171 108.756H27.8851V103.378H28.9793ZM33.2511 104.329V103.378H38.9191V104.329H36.634V110.702H35.5326V104.329H33.2511ZM43.1927 110.702V103.378H45.8032C46.3706 103.378 46.8415 103.476 47.2158 103.671C47.5924 103.867 47.8737 104.137 48.0597 104.483C48.2457 104.826 48.3386 105.223 48.3386 105.674C48.3386 106.122 48.2445 106.516 48.0561 106.857C47.8702 107.196 47.5889 107.459 47.2122 107.648C46.8379 107.836 46.367 107.93 45.7996 107.93H43.8221V106.979H45.6995C46.0571 106.979 46.348 106.928 46.5721 106.825C46.7986 106.723 46.9642 106.574 47.0691 106.378C47.174 106.183 47.2265 105.948 47.2265 105.674C47.2265 105.397 47.1728 105.158 47.0656 104.955C46.9607 104.752 46.795 104.597 46.5685 104.49C46.3444 104.38 46.05 104.326 45.6852 104.326H44.2977V110.702H43.1927ZM46.8081 107.397L48.6176 110.702H47.3588L45.5851 107.397H46.8081ZM53.3229 110.702H52.15L54.7855 103.378H56.0622L58.6977 110.702H57.5248L55.4543 104.708H55.397L53.3229 110.702ZM53.5196 107.834H57.3245V108.763H53.5196V107.834ZM66.7118 105.302C66.6737 104.963 66.5164 104.701 66.2398 104.515C65.9633 104.327 65.6152 104.233 65.1956 104.233C64.8952 104.233 64.6354 104.28 64.416 104.376C64.1967 104.469 64.0262 104.597 63.9046 104.762C63.7854 104.924 63.7258 105.109 63.7258 105.316C63.7258 105.49 63.7664 105.64 63.8474 105.767C63.9309 105.893 64.0393 105.999 64.1729 106.085C64.3087 106.168 64.4542 106.239 64.6091 106.296C64.7641 106.351 64.9131 106.396 65.0561 106.432L65.7713 106.618C66.005 106.675 66.2446 106.752 66.4901 106.85C66.7357 106.948 66.9634 107.077 67.1732 107.236C67.383 107.396 67.5522 107.594 67.681 107.83C67.8121 108.066 67.8776 108.349 67.8776 108.678C67.8776 109.092 67.7704 109.461 67.5558 109.783C67.3436 110.104 67.0349 110.358 66.6296 110.544C66.2267 110.73 65.7392 110.823 65.167 110.823C64.6187 110.823 64.1442 110.736 63.7437 110.562C63.3432 110.388 63.0297 110.141 62.8032 109.822C62.5767 109.5 62.4516 109.119 62.4277 108.678H63.5363C63.5578 108.942 63.6436 109.163 63.7938 109.339C63.9464 109.513 64.1407 109.643 64.3767 109.729C64.6151 109.812 64.8761 109.854 65.1598 109.854C65.4722 109.854 65.7499 109.805 65.9931 109.707C66.2386 109.607 66.4317 109.469 66.5724 109.293C66.713 109.114 66.7834 108.905 66.7834 108.667C66.7834 108.45 66.7214 108.272 66.5974 108.134C66.4758 107.996 66.3101 107.881 66.1003 107.791C65.8929 107.7 65.6581 107.62 65.3959 107.551L64.5305 107.315C63.944 107.155 63.4791 106.921 63.1358 106.611C62.7949 106.301 62.6244 105.891 62.6244 105.38C62.6244 104.958 62.7389 104.59 62.9677 104.275C63.1966 103.961 63.5065 103.716 63.8975 103.542C64.2885 103.366 64.7295 103.278 65.2206 103.278C65.7165 103.278 66.154 103.365 66.533 103.539C66.9145 103.713 67.2149 103.952 67.4342 104.258C67.6535 104.56 67.768 104.908 67.7775 105.302H66.7118ZM71.858 104.329V103.378H77.526V104.329H75.2409V110.702H74.1395V104.329H71.858Z" fill="#8B8B8B"/>
<path d="M144.463 105.759H143.347C143.304 105.521 143.225 105.311 143.108 105.13C142.991 104.949 142.848 104.795 142.679 104.669C142.509 104.542 142.32 104.447 142.11 104.383C141.903 104.318 141.682 104.286 141.449 104.286C141.027 104.286 140.649 104.392 140.315 104.604C139.984 104.817 139.721 105.128 139.528 105.538C139.337 105.948 139.242 106.448 139.242 107.04C139.242 107.636 139.337 108.139 139.528 108.549C139.721 108.959 139.985 109.269 140.318 109.479C140.652 109.688 141.028 109.793 141.445 109.793C141.676 109.793 141.896 109.762 142.103 109.7C142.313 109.636 142.502 109.542 142.672 109.418C142.841 109.294 142.984 109.142 143.101 108.964C143.22 108.782 143.302 108.575 143.347 108.341L144.463 108.345C144.404 108.705 144.288 109.036 144.116 109.339C143.947 109.64 143.729 109.899 143.462 110.119C143.197 110.336 142.894 110.504 142.554 110.623C142.213 110.742 141.841 110.802 141.438 110.802C140.804 110.802 140.239 110.652 139.743 110.351C139.247 110.048 138.856 109.616 138.57 109.053C138.286 108.49 138.144 107.819 138.144 107.04C138.144 106.258 138.287 105.587 138.573 105.026C138.859 104.464 139.25 104.032 139.746 103.732C140.242 103.429 140.806 103.278 141.438 103.278C141.826 103.278 142.189 103.334 142.525 103.446C142.863 103.555 143.167 103.718 143.437 103.932C143.706 104.144 143.929 104.404 144.106 104.712C144.282 105.017 144.401 105.366 144.463 105.759ZM148.806 110.702V103.378H149.911V106.561H153.563V103.378H154.671V110.702H153.563V107.508H149.911V110.702H148.806ZM159.301 110.702V103.378H163.893V104.329H160.406V106.561H163.653V107.508H160.406V109.75H163.936V110.702H159.301ZM174.473 105.759H173.357C173.314 105.521 173.234 105.311 173.118 105.13C173.001 104.949 172.858 104.795 172.689 104.669C172.519 104.542 172.33 104.447 172.12 104.383C171.913 104.318 171.692 104.286 171.458 104.286C171.036 104.286 170.659 104.392 170.325 104.604C169.993 104.817 169.731 105.128 169.538 105.538C169.347 105.948 169.252 106.448 169.252 107.04C169.252 107.636 169.347 108.139 169.538 108.549C169.731 108.959 169.995 109.269 170.328 109.479C170.662 109.688 171.038 109.793 171.455 109.793C171.686 109.793 171.905 109.762 172.113 109.7C172.323 109.636 172.512 109.542 172.681 109.418C172.851 109.294 172.994 109.142 173.111 108.964C173.23 108.782 173.312 108.575 173.357 108.341L174.473 108.345C174.413 108.705 174.298 109.036 174.126 109.339C173.957 109.64 173.739 109.899 173.472 110.119C173.207 110.336 172.904 110.504 172.563 110.623C172.222 110.742 171.851 110.802 171.448 110.802C170.813 110.802 170.248 110.652 169.753 110.351C169.257 110.048 168.866 109.616 168.58 109.053C168.296 108.49 168.154 107.819 168.154 107.04C168.154 106.258 168.297 105.587 168.583 105.026C168.869 104.464 169.26 104.032 169.756 103.732C170.252 103.429 170.816 103.278 171.448 103.278C171.836 103.278 172.199 103.334 172.535 103.446C172.873 103.555 173.177 103.718 173.447 103.932C173.716 104.144 173.939 104.404 174.115 104.712C174.292 105.017 174.411 105.366 174.473 105.759ZM178.816 110.702V103.378H179.921V106.875H180.011L183.083 103.378H184.474L181.52 106.675L184.484 110.702H183.154L180.787 107.43L179.921 108.424V110.702H178.816ZM188.525 110.702V103.378H193.116V104.329H189.63V106.561H192.877V107.508H189.63V109.75H193.159V110.702H188.525ZM197.613 110.702V103.378H200.224C200.791 103.378 201.262 103.476 201.636 103.671C202.013 103.867 202.294 104.137 202.48 104.483C202.666 104.826 202.759 105.223 202.759 105.674C202.759 106.122 202.665 106.516 202.477 106.857C202.291 107.196 202.009 107.459 201.633 107.648C201.258 107.836 200.788 107.93 200.22 107.93H198.243V106.979H200.12C200.478 106.979 200.769 106.928 200.993 106.825C201.219 106.723 201.385 106.574 201.49 106.378C201.595 106.183 201.647 105.948 201.647 105.674C201.647 105.397 201.593 105.158 201.486 104.955C201.381 104.752 201.216 104.597 200.989 104.49C200.765 104.38 200.471 104.326 200.106 104.326H198.718V110.702H197.613ZM201.229 107.397L203.038 110.702H201.779L200.006 107.397H201.229Z" fill="black"/>
</svg>
